<svg width="16" height="18" viewBox="0 0 16 18" fill="none" xmlns="http://www.w3.org/2000/svg">
<path d="M12.8204 12.8202L9.14802 16.4926C8.98742 16.6533 8.79671 16.7809 8.58678 16.8679C8.37686 16.9549 8.15185 16.9997 7.92461 16.9997C7.69737 16.9997 7.47236 16.9549 7.26243 16.8679C7.05251 16.7809 6.8618 16.6533 6.70119 16.4926L3.02792 12.8202C2.05959 11.8518 1.40016 10.618 1.13302 9.27488C0.865881 7.93173 1.00302 6.53953 1.52711 5.27432C2.05119 4.00912 2.93868 2.92773 4.07735 2.16691C5.21602 1.40609 6.55472 1 7.92418 1C9.29363 1 10.6323 1.40609 11.771 2.16691C12.9097 2.92773 13.7972 4.00912 14.3212 5.27432C14.8453 6.53953 14.9825 7.93173 14.7153 9.27488C14.4482 10.618 13.7888 11.8518 12.8204 12.8202V12.8202Z" stroke="#475569" stroke-linecap="round" stroke-linejoin="round"/>
<path d="M9.76025 9.75995C10.2472 9.273 10.5208 8.61255 10.5208 7.9239C10.5208 7.23524 10.2472 6.5748 9.76025 6.08785C9.2733 5.6009 8.61285 5.32733 7.9242 5.32733C7.23555 5.32733 6.5751 5.6009 6.08815 6.08785C5.6012 6.5748 5.32764 7.23524 5.32764 7.9239C5.32764 8.61255 5.6012 9.273 6.08815 9.75995C6.5751 10.2469 7.23555 10.5205 7.9242 10.5205C8.61285 10.5205 9.2733 10.2469 9.76025 9.75995Z" stroke="#475569" stroke-linecap="round" stroke-linejoin="round"/>
</svg>
