<svg width="33" height="32" viewBox="0 0 33 32" fill="none" xmlns="http://www.w3.org/2000/svg">
<path fill-rule="evenodd" clip-rule="evenodd" d="M10.447 0C10.048 8.44486e-05 9.65793 0.117428 9.32621 0.337197C8.99448 0.556965 8.73593 0.869291 8.58325 1.23469C8.43057 1.60009 8.39062 2.00216 8.46843 2.39006C8.54625 2.77797 8.73835 3.1343 9.02044 3.414L10.447 4.828V12.344C10.4468 12.8744 10.2342 13.383 9.85577 13.758L1.78499 21.758C-2.02845 25.538 0.67324 32 6.06452 32H26.9335C32.3268 32 35.0285 25.538 31.2151 21.758L23.1443 13.758C22.7659 13.383 22.5532 12.8744 22.5531 12.344V4.828L23.9796 3.414C24.2617 3.1343 24.4538 2.77797 24.5316 2.39006C24.6095 2.00216 24.5695 1.60009 24.4168 1.23469C24.2641 0.869291 24.0056 0.556965 23.6739 0.337197C23.3421 0.117428 22.9521 8.44486e-05 22.5531 0H10.447ZM14.4823 12.344V4H18.5177V12.344C18.5186 13.9345 19.1565 15.4595 20.2913 16.584L22.3635 18.64C20.9123 18.306 19.3962 18.3766 17.983 18.844L17.0347 19.156C15.378 19.7035 13.5867 19.7035 11.93 19.156L10.794 18.782C10.718 18.7564 10.6413 18.7331 10.564 18.712L12.7088 16.586C13.844 15.461 14.482 13.9352 14.4823 12.344Z" fill="#7C3AED"/>
</svg>
